<?xml version="1.0" encoding="utf-8"?>
<!-- Generator: Adobe Illustrator 26.0.2, SVG Export Plug-In . SVG Version: 6.00 Build 0)  -->
<svg version="1.1" id="Layer_1" xmlns="http://www.w3.org/2000/svg" xmlns:xlink="http://www.w3.org/1999/xlink" x="0px" y="0px"
	 viewBox="0 0 16 16" style="enable-background:new 0 0 16 16;" xml:space="preserve">
<style type="text/css">
	.st0{fill:#FFFFFF;}
	.st1{fill:#DE5307;}
</style>
<path class="st0" d="M7.5,14.34v0.22c0.67,0.09,0.93,0.22,0.93,0.37c0,0.28-0.88,0.5-2.06,0.5c-1.18,0-2.22-0.23-2.22-0.5
	c0-0.15,0.29-0.29,1-0.38v-0.19c-1.06,0.14-1.61,0.38-1.61,0.66c0,0.43,1.27,0.77,2.83,0.77s2.83-0.35,2.83-0.77
	C9.2,14.72,8.61,14.47,7.5,14.34z"/>
<path class="st1" d="M11.62,6.02c-0.18-0.36-0.51-0.59-0.72-0.59l-0.01,0l-0.01,0c-0.1,0.02-0.13,0.18-0.1,0.32l0.02,0.09l0.12-0.11
	l0-0.03c-0.01-0.06,0.01-0.09,0.01-0.09c0.04,0,0.19,0.17,0.38,0.56c0.2,0.41,0.22,0.6,0.21,0.62c-0.01,0-0.04,0-0.09-0.05
	L11.4,6.74l-0.16,0.02l0.07,0.07c0.07,0.08,0.18,0.14,0.25,0.14c0,0,0,0,0,0c0.04,0,0.06-0.02,0.08-0.04
	C11.77,6.76,11.79,6.38,11.62,6.02z"/>
<path class="st0" d="M11.28,6.34l-0.13-0.27C11.11,5.99,11.01,5.96,10.93,6l-0.92,0.45C9.97,6.47,9.94,6.51,9.93,6.56
	c-0.01,0.05,0,0.1,0.04,0.14c0.02,0.03,0.04,0.05,0.06,0.09c0.02,0.03,0.03,0.07,0.03,0.1c0.01,0.05,0.04,0.1,0.09,0.12
	c0.02,0.01,0.05,0.02,0.07,0.02c0.02,0,0.05-0.01,0.07-0.02l0.92-0.45c0.04-0.02,0.07-0.05,0.08-0.09
	C11.3,6.43,11.3,6.38,11.28,6.34z"/>
<path class="st0" d="M6.5,9.13L5.98,8.12C5.96,8.07,5.92,8.05,5.87,8.07L4.35,9.33l1.37,5.73l1.1-0.01L6.37,10.2l0.08-0.9
	C6.5,9.26,6.52,9.19,6.5,9.13z"/>
<path class="st0" d="M12.3,12.33c-0.04,0.01-0.08,0.02-0.12,0.04c-0.72,0.35-3.34-1.51-4.77-4.46C6.26,5.55,6.14,3.15,6.5,2.09V0.97
	C6.39,0.99,6.29,1.02,6.23,1.1C5.22,2.43,4.98,5.53,6.37,8.4c1.4,2.88,4.14,4.69,5.85,4.73c0.03-0.01,0.05-0.01,0.07-0.02V12.33z"/>
<path class="st1" d="M13.27,11.11l-0.18-0.04l-0.17,0.2l-0.02,0.09c0.15,0.66,0.06,1.04-0.09,1.11c-0.15,0.07-0.67-0.29-1.73-1.25
	c-0.71-0.65-1.65-1.92-2.58-3.82c-0.93-1.9-1.27-3.51-1.4-4.3c-0.21-1.36-0.06-1.97,0.1-2.04c0.16-0.08,0.52,0.08,0.96,0.6L8.23,1.7
	l0.25-0.01l0.08-0.17C7.98,0.77,7.18,0.19,6.75,0.21C6.6,0.22,6.53,0.29,6.48,0.36C5.81,1.62,5.79,4.93,7.3,8.02
	c1.51,3.11,4.23,5.16,5.66,5.42l0.03,0c0.11-0.02,0.21-0.08,0.29-0.2C13.52,12.89,13.51,12.05,13.27,11.11z"/>
</svg>
