<svg id="Layer_1" data-name="Layer 1" xmlns="http://www.w3.org/2000/svg" viewBox="0 0 16 16"><defs><style>.cls-1{fill:none;stroke:#de5307;stroke-miterlimit:10;stroke-width:0.5px;}.cls-2{fill:#fff;}.cls-3{fill:#de5307;}</style></defs><rect class="cls-1" x="0.38" y="0.38" width="15.24" height="15.24" rx="7.62"/><path class="cls-2" d="M7.68,13.19v.18c.55.07.76.18.76.3s-.72.41-1.68.41-1.82-.19-1.82-.41.24-.23.82-.31v-.15c-.87.11-1.32.31-1.32.54s1,.63,2.32.63,2.31-.29,2.31-.63S8.59,13.3,7.68,13.19Z"/><path class="cls-3" d="M11.05,6.38a.78.78,0,0,0-.59-.48h0c-.08,0-.11.14-.08.26v.07l.1-.09v0a.11.11,0,0,1,0-.08s.15.14.31.46A1.22,1.22,0,0,1,11,7s0,0-.07,0h-.16L10.8,7a.33.33,0,0,0,.2.12h0s.05,0,.07,0A.77.77,0,0,0,11.05,6.38Z"/><path class="cls-2" d="M10.78,6.64l-.11-.22a.13.13,0,0,0-.18-.06l-.75.37a.13.13,0,0,0-.07.09.14.14,0,0,0,0,.12A.18.18,0,0,1,9.75,7a.13.13,0,0,1,0,.08.12.12,0,0,0,.07.1l.06,0,.05,0,.76-.37s.06,0,.06-.07A.2.2,0,0,0,10.78,6.64Z"/><path class="cls-2" d="M6.86,8.92,6.44,8.1s-.05-.06-.09,0l-1.25,1,1.12,4.69h.9l-.36-4,.06-.74A.12.12,0,0,0,6.86,8.92Z"/><path class="cls-2" d="M11.61,11.54l-.1,0c-.59.28-2.73-1.24-3.9-3.65a7.34,7.34,0,0,1-.75-4.77V2.25a.32.32,0,0,0-.22.1c-.83,1.09-1,3.63.12,6s3.38,3.84,4.78,3.87l.06,0v-.64Z"/><path class="cls-3" d="M12.4,10.55l-.14,0-.14.17,0,.07c.12.54.05.85-.07.91s-.55-.24-1.42-1A11.12,11.12,0,0,1,8.5,7.51,13.07,13.07,0,0,1,7.35,4c-.17-1.11,0-1.61.09-1.67s.42.06.78.49l.06,0h.2l.07-.13A2.58,2.58,0,0,0,7.07,1.62a.26.26,0,0,0-.22.13c-.55,1-.57,3.74.67,6.27s3.46,4.22,4.63,4.43h0a.32.32,0,0,0,.24-.16A2.51,2.51,0,0,0,12.4,10.55Z"/></svg>