<svg id="Layer_1" data-name="Layer 1" xmlns="http://www.w3.org/2000/svg" viewBox="0 0 16 16"><defs><style>.cls-1{fill:none;stroke:#fff;stroke-miterlimit:10;stroke-width:0.5px;}.cls-2{fill:#fff;}.cls-3{fill:#de5307;}</style></defs><rect class="cls-1" x="0.38" y="0.38" width="15.24" height="15.24" rx="5.15"/><path class="cls-2" d="M7.61,13.65v.2c.6.08.83.19.83.33s-.79.44-1.84.44-2-.2-2-.44.26-.26.89-.34v-.17c-.94.12-1.43.34-1.43.59s1.13.68,2.52.68,2.52-.31,2.52-.68S8.6,13.77,7.61,13.65Z"/><path class="cls-3" d="M11.28,6.24a.87.87,0,0,0-.64-.53h0c-.09,0-.11.16-.09.28l0,.08L10.66,6V6a.11.11,0,0,1,0-.08s.17.15.33.5a1.27,1.27,0,0,1,.19.55s0,0-.08,0h-.17L11,7a.4.4,0,0,0,.23.12h0a.15.15,0,0,0,.07,0A.88.88,0,0,0,11.28,6.24Z"/><path class="cls-2" d="M11,6.52l-.12-.24a.14.14,0,0,0-.19-.06l-.82.4a.13.13,0,0,0,0,.22.35.35,0,0,1,0,.08.16.16,0,0,1,0,.09.15.15,0,0,0,.08.11l.06,0,.07,0,.82-.4A.18.18,0,0,0,11,6.64.17.17,0,0,0,11,6.52Z"/><path class="cls-2" d="M6.72,9l-.47-.9a.06.06,0,0,0-.09,0L4.8,9.19,6,14.29H7L6.6,10l.07-.8A.15.15,0,0,0,6.72,9Z"/><path class="cls-2" d="M11.89,11.86l-.11,0c-.64.31-3-1.35-4.25-4a7.89,7.89,0,0,1-.81-5.19v-1a.37.37,0,0,0-.24.12C5.58,3,5.36,5.8,6.6,8.36s3.69,4.18,5.22,4.21h.06v-.7Z"/><path class="cls-3" d="M12.75,10.77l-.16,0-.15.17,0,.09c.14.58.06.92-.08,1s-.6-.25-1.54-1.11a12,12,0,0,1-2.3-3.4A14.13,14.13,0,0,1,7.25,3.63c-.19-1.21,0-1.75.09-1.82s.46.08.86.54l.06,0h.22l.07-.16A2.76,2.76,0,0,0,6.94,1.06a.27.27,0,0,0-.24.13C6.1,2.31,6.08,5.26,7.43,8s3.77,4.6,5.05,4.83h0a.38.38,0,0,0,.26-.18A2.78,2.78,0,0,0,12.75,10.77Z"/></svg>